<svg width="54" height="54" viewBox="0 0 54 54" fill="none" xmlns="http://www.w3.org/2000/svg">
<rect x="-0.000183105" y="54" width="54" height="54" rx="5" transform="rotate(-90 -0.000183105 54)" fill="#9166F0"/>
<path fill-rule="evenodd" clip-rule="evenodd" d="M13.4554 40.5444C12.8479 39.9369 12.8479 38.952 13.4554 38.3445L38.3444 13.4557C38.9519 12.8482 39.9366 12.8482 40.5441 13.4557C41.1516 14.0632 41.1516 15.0479 40.5441 15.6554L15.6553 40.5444C15.0478 41.1519 14.0629 41.1519 13.4554 40.5444Z" fill="white"/>
<path fill-rule="evenodd" clip-rule="evenodd" d="M17.6665 14.5555C17.6665 13.6964 18.3629 12.9999 19.222 12.9999H39.4443C40.3033 12.9999 40.9998 13.6964 40.9998 14.5555V34.7777C40.9998 35.6368 40.3033 36.3333 39.4443 36.3333C38.5852 36.3333 37.8887 35.6368 37.8887 34.7777V16.111H19.222C18.3629 16.111 17.6665 15.4146 17.6665 14.5555Z" fill="white"/>
</svg>
